<svg xmlns="http://www.w3.org/2000/svg" viewBox="0 0 495.45 721.36"><g id="Layer_2" data-name="Layer 2"><g id="Layer_1-2" data-name="Layer 1"><path d="M368,310.51A60.56,60.56,0,0,1,345.15,302c11.16,14.88,30.06,41.72,36.44,50.82a.65.65,0,0,0,.66.28.7.7,0,0,0,.58-.53c5.18-17.91,3.76-36.06,3.27-40.67C380.51,311.67,374.48,311.23,368,310.51Z"/><path d="M417.11,298.13c-12.76-4.65-34.11-12.43-37.93-12.43-4,0-27.32,4.73-41.19,7.67,4.41,3.74,15.85,12.32,30.36,14.4,40.68,4.52,60.18-2.35,60.94-5.2-.09,0-.27-.19-.9-.4C426.2,301.44,422.09,299.94,417.11,298.13Z"/><path d="M495,361.42c-2.52-70.45-23.4-129.79-43.59-187.18q-3.12-8.87-6.2-17.69c-21.08-60.61-70.55-89.46-114.47-89.93a52.17,52.17,0,0,1,1.48-16c.41-1.65.95-3.62,1.54-5.76,4-14.77,6.84-26.44,3.15-31.28a5.66,5.66,0,0,0-4.61-2.23c-6.62,0-10.24,7.69-12.1,14-7.15-13.12-17.47-28.53-25-24.78-3.38,1.69-3.57,7.89-.58,18.5-4.37-4.79-9-8.22-13-8.88a7.13,7.13,0,0,0-6.42,1.93c-4,4,0,11.66,5.33,18.79-7.79-2.13-11.64,1.31-12.23,1.9l-.32.32-.2.4c-2.93,5.85.78,10.36,4,12,15.72,7.86,27,19.54,31.82,25.11-76,21.3-123.93,63.63-146.46,129.18-19.82,57.68-15.76,121.59-12.5,173,.77,12.16,1.5,23.65,1.83,34,.79,25-6,44.12-20.11,56.78C95.47,491.16,37.42,482.86,9.52,478.87l-1.19-.17-.35,0c-2.08.23-6,1.58-7.42,5.19-1.61,4,.23,9.07,5.61,15.48l.36.35c66.75,55.08,154,94.71,230.16,108.14v48.7c0,9.79-29.57,13.11-58.49,15.07a4.17,4.17,0,0,0,0,8.32c24.83,1.46,41.12,2.92,45.86,4.1,1.78.44,2.85,1.11,3.19,2,1.13,2.94-3.47,9.78-6.52,14.3l-1.05,1.57c-3.24,4.86-8.09,13.63-4.23,17.77a5.48,5.48,0,0,0,4.19,1.65c3.57,0,8.08-2.23,12-4.45,18.23-10.42,18.23-10.42,25.34-8,1,.34,2.07.72,3.13,1.1,5.86,2.11,10.91,3.93,13.46.83,2.32-2.82.26-7.19-2.32-11.48l-1-1.59c-7.76-12.89-12.44-20.67-12.44-41.11V611A285.44,285.44,0,0,0,290,612.9a201.35,201.35,0,0,0,37-3.19c-1.59,8.1-5.57,27.93-9.8,44.83-5.85,23.42,13.24,53,20.38,58.07a10.42,10.42,0,0,0,5.73,2.29,3.41,3.41,0,0,0,1-.11c2.66-.47,4.14-2.64,5.58-4.74,2.19-3.2,4.67-6.83,11.83-8,12.18-2,31.14,2.33,38.72,4.29a3.63,3.63,0,0,0,3.21-6.32c-7.44-6-10.19-10.24-10.28-12a.57.57,0,0,1,.18-.54c2.39-2.39,9-5.52,18.13-8.59a4.11,4.11,0,0,0-.68-8c-12.51-1.88-54.21-8.35-65.24-12.76-8.84-3.53-8.11-8.87-5.44-21.69.54-2.62,1.13-5.41,1.62-8.38,2-11.71,3.43-18.47,4.1-21.34,61.54-12,104.59-45.47,128.09-99.69C495.72,457.18,496.39,400.05,495,361.42ZM292.32,263.64a16.55,16.55,0,1,1,16.55-16.55A16.55,16.55,0,0,1,292.32,263.64ZM393,201.58a16.55,16.55,0,1,1-16.55,16.55A16.55,16.55,0,0,1,393,201.58Zm39,101.56c-1,4.38-14.76,8.87-38.5,8.87-1.49,0-3,0-4.6-.06.56,5.35,1.84,23.21-3.41,41.35a3.51,3.51,0,0,1-3.35,2.53,3.41,3.41,0,0,1-2.8-1.46c-7.62-10.86-33.1-47.07-41.85-57.81-2.05-1.66-3.23-2.83-3.39-3l-1.79-1.79,2.48-.53c1.58-.34,38.81-8.3,44.41-8.3,4,0,20.66,6,38.87,12.6,4.94,1.8,9,3.29,11.2,4C432.3,300.58,432.12,302.56,432,303.14Z"/></g></g></svg>